# xmcd
#
# Track frame offsets: 
#        150
#        17810
#        40620
#        53774
#        74575
#        96643
#        110918
#        131430
#        144347
#        167804
#        181650
#        198438
#        212229
#        227106
#        243553
#        260368
#        276293
#        293992
#        310630
#        323426
#        344557
#
# Disc length: 4743 seconds
#
# Revision: 0
# Processed by: cddbd v1.5.2PL0 Copyright (c) Steve Scherf et al.
# Submitted via: ExactAudioCopy v0.99pb4
#
DISCID=41128515
DTITLE=Houston Wells - Then and Now CD2
DYEAR=2008
DGENRE=Country
TTITLE0=The End Is Not In Sight
TTITLE1=Send A Message To My Heart
TTITLE2=As I Leave Behind Neidin
TTITLE3=Devil Woman
TTITLE4=Lonely Street
TTITLE5=The Girl From Yesterday
TTITLE6=Too-Ra-Loo-Ra-Loo-Ral
TTITLE7=Sleepy Eyed John
TTITLE8=I Really Don't Want To Know
TTITLE9=Forty Shades Of Green
TTITLE10=King Of Fools
TTITLE11=I Wouldn't Cheat On You
TTITLE12=One More Last Chance
TTITLE13=Sweet And Gentle Love
TTITLE14=My Happiness
TTITLE15=If I Didn't Have You In My World
TTITLE16=I Will Love You Every Time
TTITLE17=If TheWhole World Stopped Loving
TTITLE18=Honky Tonk Man
TTITLE19=Bluest Heartache Of The Year
TTITLE20=You're My Best Friend
EXTD=
EXTT0=
EXTT1=
EXTT2=
EXTT3=
EXTT4=
EXTT5=
EXTT6=
EXTT7=
EXTT8=
EXTT9=
EXTT10=
EXTT11=
EXTT12=
EXTT13=
EXTT14=
EXTT15=
EXTT16=
EXTT17=
EXTT18=
EXTT19=
EXTT20=
PLAYORDER=
